# xmcd
#
# Track frame offsets:
#	150
#	13164
#	23945
#	34248
#	46768
#	59582
#	70885
#	81117
#	91622
#	105195
#	116455
#	126190
#	139679
#	153325
#	166287
#	177605
#	188584
#	198337
#	210740
#	224559
#	235489
#	245044
#	255686
#	267310
#	277404
#
# Disc length: 3870 seconds
#
# Revision: 0
# Processed by: cddbd v1.5.2PL0 Copyright (c) Steve Scherf et al.
# Submitted via: audiograbber 1.83.01
#
DISCID=710f1c19
DTITLE=The Dells - The Very Best Of
DYEAR=1900
DGENRE=
TTITLE0=Oh What A Night
TTITLE1=Dry Your Eyes
TTITLE2=Baby Open Up Your Heart
TTITLE3=Tell The World
TTITLE4=Zing Zing Zing
TTITLE5=My Best Girl
TTITLE6=I'm Calling
TTITLE7=Dance Dance Dance
TTITLE8=Now I Pray
TTITLE9=Time Makes You Change
TTITLE10=Wedding Day
TTITLE11=Dreams Of Contentment
TTITLE12=Jo Jo
TTITLE13=I Can't Help Myself
TTITLE14=She's Just An Angel
TTITLE15=Q Bop She Bop
TTITLE16=Restless Days
TTITLE17=I Wanna Go Home
TTITLE18=Pain In My Heart
TTITLE19=Movin' On
TTITLE20=My Dream
TTITLE21=Distant Love
TTITLE22=Why Do You Have To Go
TTITLE23=It's Not Unusual
TTITLE24=Stay In My Corner
EXTD=
EXTT0=
EXTT1=
EXTT2=
EXTT3=
EXTT4=
EXTT5=
EXTT6=
EXTT7=
EXTT8=
EXTT9=
EXTT10=
EXTT11=
EXTT12=
EXTT13=
EXTT14=
EXTT15=
EXTT16=
EXTT17=
EXTT18=
EXTT19=
EXTT20=
EXTT21=
EXTT22=
EXTT23=
EXTT24=
PLAYORDER=
